<svg width="15" height="21" viewBox="0 0 15 21" fill="none" xmlns="http://www.w3.org/2000/svg">
<path d="M7.29739 4.60217C5.85537 4.60217 4.68164 5.80679 4.68164 7.28676C4.68164 8.76674 5.85537 9.97135 7.29739 9.97135C8.73942 9.97135 9.91315 8.76674 9.91315 7.28676C9.91315 5.80679 8.73942 4.60217 7.29739 4.60217ZM7.29739 9.20432C6.26716 9.20432 5.429 8.3441 5.429 7.28676C5.429 6.22942 6.26716 5.3692 7.29739 5.3692C8.32763 5.3692 9.16579 6.22942 9.16579 7.28676C9.16579 8.3441 8.32763 9.20432 7.29739 9.20432Z" fill="white"/>
<path d="M12.2986 2.15419C10.9451 0.765108 9.14548 0 7.2315 0C5.31714 0 3.51788 0.765108 2.16441 2.15419C-0.340355 4.72449 -0.65163 9.56059 1.4903 12.4906L7.2315 21L12.9641 12.5025C15.1146 9.56059 14.8034 4.72449 12.2986 2.15419ZM12.358 12.0542L7.2315 19.6523L2.09678 12.0423C0.154022 9.38379 0.432412 5.01635 2.69317 2.69648C3.90538 1.45236 5.51706 0.767025 7.2315 0.767025C8.94594 0.767025 10.5576 1.45236 11.7702 2.69648C14.031 5.01635 14.3093 9.38379 12.358 12.0542Z" fill="white"/>
</svg>
