<svg width="40" height="40" viewBox="0 0 40 40" fill="none" xmlns="http://www.w3.org/2000/svg">
<g clip-path="url(#clip0)">
<path d="M20.1748 0C13.8534 0 8.71075 5.27802 8.71075 11.7657V28.2343C8.71075 34.722 13.8534 40 20.1748 40C26.4962 40 31.6389 34.722 31.6389 28.2343V11.7657C31.6389 5.27802 26.4962 0 20.1748 0ZM29.3005 28.2343C29.3005 33.3984 25.2066 37.6001 20.1748 37.6001C15.143 37.6001 11.0491 33.3984 11.0491 28.2343V11.7657C11.0491 6.60156 15.143 2.3999 20.1748 2.3999C25.2066 2.3999 29.3005 6.60156 29.3005 11.7657V28.2343Z" fill="#D4C17F"/>
<path d="M20.1751 7.95715C19.5293 7.95715 19.0059 8.49426 19.0059 9.1571V14.6802C19.0059 15.3427 19.5293 15.8801 20.1751 15.8801C20.8207 15.8801 21.3443 15.3427 21.3443 14.6802V9.1571C21.3443 8.49426 20.8209 7.95715 20.1751 7.95715Z" fill="#D4C17F"/>
</g>
<defs>
<clipPath id="clip0">
<rect width="38.9744" height="40" fill="white" transform="translate(0.717957)"/>
</clipPath>
</defs>
</svg>
