<svg width="22" height="21" viewBox="0 0 22 21" fill="none" xmlns="http://www.w3.org/2000/svg">
<path d="M21.3713 17.2838C21.3063 16.7792 21.0224 16.3441 20.5927 16.0902L15.5447 13.1073C14.9265 12.7419 14.1422 12.8483 13.6375 13.3662L12.6432 14.3866C12.3787 14.6582 11.9601 14.6822 11.6698 14.4424C10.8859 13.7951 10.1141 13.0827 9.3759 12.325C8.63766 11.5674 7.94353 10.7753 7.31277 9.9708C7.07912 9.67282 7.1025 9.24325 7.36717 8.97166L8.36142 7.95121C8.86601 7.43339 8.96977 6.62851 8.61371 5.99385L5.7073 0.813074C5.45982 0.371947 5.03593 0.0806735 4.54424 0.0139102C4.05251 -0.0529891 3.56935 0.115325 3.21864 0.475266L1.72047 2.01291C0.674828 3.08611 0.658035 5.04919 1.67318 7.54061C2.64931 9.9362 4.47092 12.5733 6.80239 14.9663C9.13395 17.3591 11.7035 19.2287 14.0377 20.2305C15.2326 20.7433 16.3027 20.9996 17.2062 20.9995C18.1381 20.9995 18.8927 20.7268 19.4237 20.1819L20.9218 18.6443C21.2725 18.2843 21.4364 17.7885 21.3713 17.2838ZM15.214 13.6968L20.2619 16.6797C20.5116 16.8272 20.6764 17.08 20.7142 17.373C20.7459 17.619 20.6836 17.8612 20.5425 18.0564L13.8338 14.1269L14.1063 13.8472C14.3993 13.5465 14.8549 13.4847 15.214 13.6968ZM4.45727 0.688392C4.74289 0.727171 4.98908 0.896347 5.1328 1.15256L8.03921 6.33334C8.24603 6.70194 8.18575 7.16946 7.89271 7.47017L7.64245 7.72702L3.79266 0.864598C3.95003 0.744995 4.13824 0.680046 4.33446 0.680046C4.37516 0.680046 4.41621 0.682813 4.45727 0.688392ZM18.9549 19.7008C18.1241 20.5534 16.4251 20.5177 14.2934 19.6028C12.037 18.6343 9.54312 16.8169 7.27119 14.4852C4.99925 12.1534 3.22836 9.59394 2.28476 7.27814C1.39327 5.09032 1.35849 3.34659 2.18922 2.49395L3.30141 1.35244L7.15699 8.22525L6.89842 8.49063C6.39396 9.0084 6.35004 9.82807 6.79629 10.3974C7.4419 11.2208 8.15212 12.0313 8.9071 12.8061C9.66218 13.581 10.4518 14.3099 11.2541 14.9725C11.8087 15.4305 12.6074 15.3855 13.112 14.8677L13.3479 14.6255L20.0659 18.5605L18.9549 19.7008Z" fill="white"/>
</svg>
